<?xml version="1.0" encoding="UTF-8" standalone="no"?><svg xmlns="http://www.w3.org/2000/svg" xmlns:xlink="http://www.w3.org/1999/xlink" contentScriptType="application/ecmascript" contentStyleType="text/css" height="198px" preserveAspectRatio="none" style="width:1051px;height:198px;background:#FFFFFF;" version="1.1" viewBox="0 0 1051 198" width="1051px" zoomAndPan="magnify"><defs><filter height="300%" id="f1cdjwgmd40pfd" width="300%" x="-1" y="-1"><feGaussianBlur result="blurOut" stdDeviation="2.0"/><feColorMatrix in="blurOut" result="blurOut2" type="matrix" values="0 0 0 0 0 0 0 0 0 0 0 0 0 0 0 0 0 0 .4 0"/><feOffset dx="4.0" dy="4.0" in="blurOut2" result="blurOut3"/><feBlend in="SourceGraphic" in2="blurOut3" mode="normal"/></filter></defs><g><!--MD5=[15adceb85fc527a57e07a494368da6ff]
entity m1--><ellipse cx="944" cy="159" fill="#FEFECE" filter="url(#f1cdjwgmd40pfd)" rx="8" ry="8" style="stroke:#A80036;stroke-width:1.5;"/><text fill="#000000" font-family="sans-serif" font-size="14" lengthAdjust="spacing" textLength="73" x="907.5" y="189.5352">Messaging</text><!--MD5=[a1e4de05db1fa466752eb150f91817e2]
entity m2--><ellipse cx="513" cy="159" fill="#FEFECE" filter="url(#f1cdjwgmd40pfd)" rx="8" ry="8" style="stroke:#A80036;stroke-width:1.5;"/><text fill="#000000" font-family="sans-serif" font-size="14" lengthAdjust="spacing" textLength="73" x="476.5" y="189.5352">Messaging</text><!--MD5=[bae29da1e3324d21f5fbf8ae94e107af]
entity h1--><ellipse cx="752" cy="159" fill="#FEFECE" filter="url(#f1cdjwgmd40pfd)" rx="8" ry="8" style="stroke:#A80036;stroke-width:1.5;"/><text fill="#000000" font-family="sans-serif" font-size="14" lengthAdjust="spacing" textLength="36" x="734" y="189.5352">HTTP</text><!--MD5=[4f7d7c560c72abb263247384ac23b6e8]
entity HotDrinksMaker--><rect fill="#FEFECE" filter="url(#f1cdjwgmd40pfd)" height="46.4883" style="stroke:#A80036;stroke-width:1.5;" width="150" x="758" y="7"/><rect fill="#FEFECE" height="10" style="stroke:#A80036;stroke-width:1.5;" width="15" x="888" y="12"/><rect fill="#FEFECE" height="2" style="stroke:#A80036;stroke-width:1.5;" width="4" x="886" y="14"/><rect fill="#FEFECE" height="2" style="stroke:#A80036;stroke-width:1.5;" width="4" x="886" y="18"/><text fill="#000000" font-family="sans-serif" font-size="14" lengthAdjust="spacing" textLength="110" x="773" y="40.5352">HotDrinksMaker</text><!--MD5=[9d87300c3d68935b74f2cd2b4818507d]
entity Delivery--><rect fill="#FEFECE" filter="url(#f1cdjwgmd40pfd)" height="46.4883" style="stroke:#A80036;stroke-width:1.5;" width="94" x="943" y="7"/><rect fill="#FEFECE" height="10" style="stroke:#A80036;stroke-width:1.5;" width="15" x="1017" y="12"/><rect fill="#FEFECE" height="2" style="stroke:#A80036;stroke-width:1.5;" width="4" x="1015" y="14"/><rect fill="#FEFECE" height="2" style="stroke:#A80036;stroke-width:1.5;" width="4" x="1015" y="18"/><text fill="#000000" font-family="sans-serif" font-size="14" lengthAdjust="spacing" textLength="54" x="958" y="40.5352">Delivery</text><!--MD5=[472e27b22dcf69eb37b550c63b834c9e]
entity Purchasing--><rect fill="#FEFECE" filter="url(#f1cdjwgmd40pfd)" height="46.4883" style="stroke:#A80036;stroke-width:1.5;" width="116" x="295" y="7"/><rect fill="#FEFECE" height="10" style="stroke:#A80036;stroke-width:1.5;" width="15" x="391" y="12"/><rect fill="#FEFECE" height="2" style="stroke:#A80036;stroke-width:1.5;" width="4" x="389" y="14"/><rect fill="#FEFECE" height="2" style="stroke:#A80036;stroke-width:1.5;" width="4" x="389" y="18"/><text fill="#000000" font-family="sans-serif" font-size="14" lengthAdjust="spacing" textLength="76" x="310" y="40.5352">Purchasing</text><path d="M6,9.5 L6,50.1211 A0,0 0 0 0 6,50.1211 L260,50.1211 A0,0 0 0 0 260,50.1211 L260,34 L294.99,30 L260,26 L260,19.5 L250,9.5 L6,9.5 A0,0 0 0 0 6,9.5 " fill="#FBFB77" filter="url(#f1cdjwgmd40pfd)" style="stroke:#A80036;stroke-width:1.0;"/><path d="M250,9.5 L250,19.5 L260,19.5 L250,9.5 " fill="#FBFB77" style="stroke:#A80036;stroke-width:1.0;"/><text fill="#000000" font-family="sans-serif" font-size="13" lengthAdjust="spacing" textLength="233" x="12" y="27.0684">Effectively external system providing</text><text fill="#000000" font-family="sans-serif" font-size="13" lengthAdjust="spacing" textLength="224" x="12" y="42.3789">purchasing of raw materials needed</text><!--MD5=[13fd54700aae7bd15e6d9666db74d7a3]
entity IAM--><rect fill="#FEFECE" filter="url(#f1cdjwgmd40pfd)" height="46.4883" style="stroke:#A80036;stroke-width:1.5;" width="66" x="482" y="7"/><rect fill="#FEFECE" height="10" style="stroke:#A80036;stroke-width:1.5;" width="15" x="528" y="12"/><rect fill="#FEFECE" height="2" style="stroke:#A80036;stroke-width:1.5;" width="4" x="526" y="14"/><rect fill="#FEFECE" height="2" style="stroke:#A80036;stroke-width:1.5;" width="4" x="526" y="18"/><text fill="#000000" font-family="sans-serif" font-size="14" lengthAdjust="spacing" textLength="26" x="497" y="40.5352">IAM</text><!--MD5=[9f3a7dfe6e867db86e0d980c4b64e434]
link HotDrinksMaker to m1--><path d="M852.33,53.12 C875.86,80.04 914.74,124.52 933.39,145.86 " fill="none" id="HotDrinksMaker-to-m1" style="stroke:#A80036;stroke-width:1.0;stroke-dasharray:7.0,7.0;"/><polygon fill="#A80036" points="936.83,149.8,933.9163,140.392,933.5385,146.0362,927.8943,145.6584,936.83,149.8" style="stroke:#A80036;stroke-width:1.0;"/><text fill="#000000" font-family="sans-serif" font-size="13" lengthAdjust="spacing" textLength="47" x="892" y="96.5684">publish</text><!--MD5=[d9e9956313ce2a3376ad5072ea9aa96c]
link HotDrinksMaker to m2--><path d="M757.92,50.96 C728.5,59.62 694.74,70.63 665,83 C650.13,89.19 647.36,92.72 633,100 C594.82,119.36 549.15,141.03 526.76,151.56 " fill="none" id="HotDrinksMaker-to-m2" style="stroke:#A80036;stroke-width:1.0;stroke-dasharray:7.0,7.0;"/><polygon fill="#A80036" points="522.09,153.75,531.9367,153.5416,526.6151,151.6231,528.5336,146.3015,522.09,153.75" style="stroke:#A80036;stroke-width:1.0;"/><text fill="#000000" font-family="sans-serif" font-size="13" lengthAdjust="spacing" textLength="120" x="666" y="96.5684">publish (Customer)</text><!--MD5=[a6d6fb7b8a8e6c1dd34170d22a11c908]
link Delivery to m1--><path d="M981.99,53.12 C972.36,79.7 956.53,123.41 948.69,145.05 " fill="none" id="Delivery-to-m1" style="stroke:#A80036;stroke-width:1.0;"/><polygon fill="#A80036" points="946.97,149.8,953.8118,142.7155,948.6833,145.1027,946.2961,139.9742,946.97,149.8" style="stroke:#A80036;stroke-width:1.0;"/><text fill="#000000" font-family="sans-serif" font-size="13" lengthAdjust="spacing" textLength="57" x="972" y="96.5684">consume</text><!--MD5=[707a10058f0a79e0c3416fbcc9a0c149]
link Purchasing to m2--><path d="M345.52,53.17 C342.05,67.76 340.53,86.58 350,100 C384.87,149.42 465.72,156.98 498.65,157.95 " fill="none" id="Purchasing-to-m2" style="stroke:#A80036;stroke-width:1.0;"/><polygon fill="#A80036" points="503.87,158.07,494.9638,153.8654,498.8713,157.9557,494.7809,161.8633,503.87,158.07" style="stroke:#A80036;stroke-width:1.0;"/><text fill="#000000" font-family="sans-serif" font-size="13" lengthAdjust="spacing" textLength="120" x="351" y="96.5684">consume (Supplier)</text><!--MD5=[bb0118c9211529f2557885b07c4df826]
link HotDrinksMaker to h1--><path d="M821.75,53.19 C814.55,66.94 804.75,84.81 795,100 C784.39,116.53 770.65,134.57 761.59,146.06 " fill="none" id="HotDrinksMaker-to-h1" style="stroke:#A80036;stroke-width:1.0;stroke-dasharray:7.0,7.0;"/><polygon fill="#A80036" points="758.48,149.99,767.2136,145.4376,761.593,146.0773,760.9533,140.4567,758.48,149.99" style="stroke:#A80036;stroke-width:1.0;"/><text fill="#000000" font-family="sans-serif" font-size="13" lengthAdjust="spacing" textLength="22" x="806" y="96.5684">use</text><!--MD5=[b4a8077a1a6dde695fc2a48612ca2803]
link IAM to h1--><path d="M507.15,53.18 C503.44,67.96 501.77,87 512,100 C526.36,118.24 688.3,147.15 737.75,155.6 " fill="none" id="IAM-to-h1" style="stroke:#A80036;stroke-width:1.0;"/><polygon fill="#A80036" points="742.95,156.49,734.7377,151.0533,738.0192,155.6611,733.4114,158.9425,742.95,156.49" style="stroke:#A80036;stroke-width:1.0;"/><text fill="#000000" font-family="sans-serif" font-size="13" lengthAdjust="spacing" textLength="115" x="513" y="96.5684">Open Host Service</text><!--MD5=[2fc1094c7d368bcc0da96e7d765fbe68]
@startuml

interface "Messaging" as m1
interface "Messaging" as m2
interface "HTTP" as h1

[HotDrinksMaker] ..> m1 : publish
[HotDrinksMaker] ..> m2 : publish (Customer)
[Delivery] - -> m1 : consume
[Purchasing] - -> m2 : consume (Supplier)
note left of Purchasing : Effectively external system providing\npurchasing of raw materials needed
[HotDrinksMaker] ..> h1 : use
[IAM] - -> h1 : Open Host Service

@enduml

PlantUML version 1.2021.9(Sun Jul 25 11:13:56 BST 2021)
(GPL source distribution)
Java Runtime: OpenJDK Runtime Environment
JVM: OpenJDK 64-Bit Server VM
Default Encoding: UTF-8
Language: en
Country: GB
--></g></svg>